<mxfile host="app.diagrams.net" modified="2024-03-04T16:46:18.702Z" agent="Mozilla/5.0 (Windows NT 10.0; Win64; x64) AppleWebKit/537.36 (KHTML, like Gecko) Chrome/122.0.0.0 Safari/537.36" etag="ixhtvX-Tjsx47p1JqiCC" version="23.1.4" type="github">
  <diagram name="Page-1" id="rQa93cO6n8hdiMp5DZqM">
    <mxGraphModel dx="1434" dy="738" grid="1" gridSize="10" guides="1" tooltips="1" connect="1" arrows="1" fold="1" page="1" pageScale="1" pageWidth="827" pageHeight="1169" math="0" shadow="0">
      <root>
        <mxCell id="0" />
        <mxCell id="1" parent="0" />
        <mxCell id="rg9jomImTCPaBaOwgLlo-135" value="" style="rounded=0;whiteSpace=wrap;html=1;dashed=1;fillColor=none;strokeColor=#FFFFFF;" vertex="1" parent="1">
          <mxGeometry y="40" width="760" height="560" as="geometry" />
        </mxCell>
        <mxCell id="rg9jomImTCPaBaOwgLlo-138" value="" style="edgeStyle=orthogonalEdgeStyle;rounded=0;orthogonalLoop=1;jettySize=auto;html=1;startArrow=classic;startFill=1;enumerate=1;enumerateValue=%E2%88%9E;" edge="1" parent="1" source="rg9jomImTCPaBaOwgLlo-140" target="rg9jomImTCPaBaOwgLlo-159">
          <mxGeometry relative="1" as="geometry" />
        </mxCell>
        <mxCell id="rg9jomImTCPaBaOwgLlo-139" value="" style="edgeStyle=orthogonalEdgeStyle;rounded=0;orthogonalLoop=1;jettySize=auto;html=1;" edge="1" parent="1" source="rg9jomImTCPaBaOwgLlo-140" target="rg9jomImTCPaBaOwgLlo-159">
          <mxGeometry relative="1" as="geometry" />
        </mxCell>
        <mxCell id="rg9jomImTCPaBaOwgLlo-163" value="" style="edgeStyle=orthogonalEdgeStyle;rounded=0;orthogonalLoop=1;jettySize=auto;html=1;startArrow=classic;startFill=1;enumerate=1;enumerateValue=2;" edge="1" parent="1" source="rg9jomImTCPaBaOwgLlo-140" target="rg9jomImTCPaBaOwgLlo-162">
          <mxGeometry relative="1" as="geometry" />
        </mxCell>
        <mxCell id="rg9jomImTCPaBaOwgLlo-140" value="" style="sketch=0;points=[[0,0,0],[0.25,0,0],[0.5,0,0],[0.75,0,0],[1,0,0],[0,1,0],[0.25,1,0],[0.5,1,0],[0.75,1,0],[1,1,0],[0,0.25,0],[0,0.5,0],[0,0.75,0],[1,0.25,0],[1,0.5,0],[1,0.75,0]];outlineConnect=0;fontColor=#232F3E;fillColor=#ED7100;strokeColor=#ffffff;dashed=0;verticalLabelPosition=bottom;verticalAlign=top;align=center;html=1;fontSize=12;fontStyle=0;aspect=fixed;shape=mxgraph.aws4.resourceIcon;resIcon=mxgraph.aws4.lambda;comic=0;jiggle=0;" vertex="1" parent="1">
          <mxGeometry x="438" y="280" width="80" height="80" as="geometry" />
        </mxCell>
        <mxCell id="rg9jomImTCPaBaOwgLlo-141" value="" style="sketch=0;outlineConnect=0;fontColor=#232F3E;gradientColor=none;fillColor=#E7157B;strokeColor=none;dashed=0;verticalLabelPosition=bottom;verticalAlign=top;align=center;html=1;fontSize=12;fontStyle=0;aspect=fixed;pointerEvents=1;shape=mxgraph.aws4.parameter_store;" vertex="1" parent="1">
          <mxGeometry x="599.08" y="122" width="76.92" height="80" as="geometry" />
        </mxCell>
        <mxCell id="rg9jomImTCPaBaOwgLlo-143" value="" style="sketch=0;points=[[0,0,0],[0.25,0,0],[0.5,0,0],[0.75,0,0],[1,0,0],[0,1,0],[0.25,1,0],[0.5,1,0],[0.75,1,0],[1,1,0],[0,0.25,0],[0,0.5,0],[0,0.75,0],[1,0.25,0],[1,0.5,0],[1,0.75,0]];points=[[0,0,0],[0.25,0,0],[0.5,0,0],[0.75,0,0],[1,0,0],[0,1,0],[0.25,1,0],[0.5,1,0],[0.75,1,0],[1,1,0],[0,0.25,0],[0,0.5,0],[0,0.75,0],[1,0.25,0],[1,0.5,0],[1,0.75,0]];outlineConnect=0;fontColor=#232F3E;fillColor=#E7157B;strokeColor=#ffffff;dashed=0;verticalLabelPosition=bottom;verticalAlign=top;align=center;html=1;fontSize=12;fontStyle=0;aspect=fixed;shape=mxgraph.aws4.resourceIcon;resIcon=mxgraph.aws4.cloudwatch_2;" vertex="1" parent="1">
          <mxGeometry x="439" y="122" width="78" height="78" as="geometry" />
        </mxCell>
        <mxCell id="rg9jomImTCPaBaOwgLlo-144" value="" style="edgeStyle=orthogonalEdgeStyle;rounded=0;orthogonalLoop=1;jettySize=auto;html=1;startArrow=classic;startFill=1;endArrow=none;endFill=0;enumerate=1;enumerateValue=3;fillColor=#d5e8d4;strokeColor=#82b366;" edge="1" parent="1" source="rg9jomImTCPaBaOwgLlo-145" target="rg9jomImTCPaBaOwgLlo-140">
          <mxGeometry relative="1" as="geometry" />
        </mxCell>
        <mxCell id="rg9jomImTCPaBaOwgLlo-145" value="" style="sketch=0;points=[[0,0,0],[0.25,0,0],[0.5,0,0],[0.75,0,0],[1,0,0],[0,1,0],[0.25,1,0],[0.5,1,0],[0.75,1,0],[1,1,0],[0,0.25,0],[0,0.5,0],[0,0.75,0],[1,0.25,0],[1,0.5,0],[1,0.75,0]];outlineConnect=0;fontColor=#232F3E;fillColor=#7AA116;strokeColor=#ffffff;dashed=0;verticalLabelPosition=bottom;verticalAlign=top;align=center;html=1;fontSize=12;fontStyle=0;aspect=fixed;shape=mxgraph.aws4.resourceIcon;resIcon=mxgraph.aws4.s3;" vertex="1" parent="1">
          <mxGeometry x="598" y="281" width="78" height="78" as="geometry" />
        </mxCell>
        <mxCell id="rg9jomImTCPaBaOwgLlo-146" style="edgeStyle=orthogonalEdgeStyle;rounded=0;orthogonalLoop=1;jettySize=auto;html=1;fillColor=#f8cecc;strokeColor=#ff0000;" edge="1" parent="1" source="rg9jomImTCPaBaOwgLlo-147" target="rg9jomImTCPaBaOwgLlo-148">
          <mxGeometry relative="1" as="geometry" />
        </mxCell>
        <mxCell id="rg9jomImTCPaBaOwgLlo-147" value="" style="sketch=0;points=[[0,0,0],[0.25,0,0],[0.5,0,0],[0.75,0,0],[1,0,0],[0,1,0],[0.25,1,0],[0.5,1,0],[0.75,1,0],[1,1,0],[0,0.25,0],[0,0.5,0],[0,0.75,0],[1,0.25,0],[1,0.5,0],[1,0.75,0]];outlineConnect=0;fontColor=#232F3E;fillColor=#E7157B;strokeColor=#ffffff;dashed=0;verticalLabelPosition=bottom;verticalAlign=top;align=center;html=1;fontSize=12;fontStyle=0;aspect=fixed;shape=mxgraph.aws4.resourceIcon;resIcon=mxgraph.aws4.sns;" vertex="1" parent="1">
          <mxGeometry x="599.08" y="442" width="78" height="78" as="geometry" />
        </mxCell>
        <mxCell id="rg9jomImTCPaBaOwgLlo-148" value="" style="sketch=0;outlineConnect=0;fontColor=#232F3E;gradientColor=none;fillColor=#232F3D;strokeColor=none;dashed=0;verticalLabelPosition=bottom;verticalAlign=top;align=center;html=1;fontSize=12;fontStyle=0;aspect=fixed;pointerEvents=1;shape=mxgraph.aws4.user;" vertex="1" parent="1">
          <mxGeometry x="81" y="442" width="78" height="78" as="geometry" />
        </mxCell>
        <mxCell id="rg9jomImTCPaBaOwgLlo-149" style="edgeStyle=orthogonalEdgeStyle;rounded=0;orthogonalLoop=1;jettySize=auto;html=1;entryX=1;entryY=0.25;entryDx=0;entryDy=0;entryPerimeter=0;startArrow=classic;startFill=1;enumerate=1;" edge="1" parent="1" source="rg9jomImTCPaBaOwgLlo-141" target="rg9jomImTCPaBaOwgLlo-140">
          <mxGeometry relative="1" as="geometry">
            <Array as="points">
              <mxPoint x="550" y="160" />
              <mxPoint x="550" y="300" />
            </Array>
          </mxGeometry>
        </mxCell>
        <mxCell id="rg9jomImTCPaBaOwgLlo-150" style="edgeStyle=orthogonalEdgeStyle;rounded=0;orthogonalLoop=1;jettySize=auto;html=1;exitX=0;exitY=0.25;exitDx=0;exitDy=0;exitPerimeter=0;entryX=1;entryY=0.75;entryDx=0;entryDy=0;entryPerimeter=0;endArrow=none;endFill=0;startArrow=classic;startFill=1;fillColor=#f8cecc;strokeColor=#FF0000;enumerate=1;enumerateValue=F;" edge="1" parent="1" source="rg9jomImTCPaBaOwgLlo-147" target="rg9jomImTCPaBaOwgLlo-140">
          <mxGeometry relative="1" as="geometry">
            <Array as="points">
              <mxPoint x="550" y="462" />
              <mxPoint x="550" y="340" />
            </Array>
          </mxGeometry>
        </mxCell>
        <mxCell id="rg9jomImTCPaBaOwgLlo-154" value="AWS Cloud" style="points=[[0,0],[0.25,0],[0.5,0],[0.75,0],[1,0],[1,0.25],[1,0.5],[1,0.75],[1,1],[0.75,1],[0.5,1],[0.25,1],[0,1],[0,0.75],[0,0.5],[0,0.25]];outlineConnect=0;gradientColor=none;html=1;whiteSpace=wrap;fontSize=12;fontStyle=0;container=1;pointerEvents=0;collapsible=0;recursiveResize=0;shape=mxgraph.aws4.group;grIcon=mxgraph.aws4.group_aws_cloud_alt;strokeColor=#232F3E;fillColor=none;verticalAlign=top;align=left;spacingLeft=30;fontColor=#232F3E;dashed=0;" vertex="1" parent="1">
          <mxGeometry x="238" y="80" width="482" height="480" as="geometry" />
        </mxCell>
        <mxCell id="rg9jomImTCPaBaOwgLlo-155" value="Lambda Function" style="text;html=1;strokeColor=none;fillColor=none;align=center;verticalAlign=middle;whiteSpace=wrap;rounded=0;" vertex="1" parent="rg9jomImTCPaBaOwgLlo-154">
          <mxGeometry x="201" y="279" width="78" height="40" as="geometry" />
        </mxCell>
        <mxCell id="rg9jomImTCPaBaOwgLlo-156" value="Parameter Store" style="text;html=1;strokeColor=none;fillColor=none;align=center;verticalAlign=middle;whiteSpace=wrap;rounded=0;" vertex="1" parent="rg9jomImTCPaBaOwgLlo-154">
          <mxGeometry x="361.08000000000004" y="122" width="78" height="40" as="geometry" />
        </mxCell>
        <mxCell id="rg9jomImTCPaBaOwgLlo-157" value="S3 Bucket" style="text;html=1;strokeColor=none;fillColor=none;align=center;verticalAlign=middle;whiteSpace=wrap;rounded=0;" vertex="1" parent="rg9jomImTCPaBaOwgLlo-154">
          <mxGeometry x="361.08000000000004" y="279" width="78" height="40" as="geometry" />
        </mxCell>
        <mxCell id="rg9jomImTCPaBaOwgLlo-158" value="SNS Topic" style="text;html=1;strokeColor=none;fillColor=none;align=center;verticalAlign=middle;whiteSpace=wrap;rounded=0;" vertex="1" parent="rg9jomImTCPaBaOwgLlo-154">
          <mxGeometry x="361.08000000000004" y="440" width="78" height="40" as="geometry" />
        </mxCell>
        <mxCell id="rg9jomImTCPaBaOwgLlo-159" value="CloudWatch Log Group" style="text;html=1;strokeColor=none;fillColor=none;align=center;verticalAlign=middle;whiteSpace=wrap;rounded=0;" vertex="1" parent="rg9jomImTCPaBaOwgLlo-154">
          <mxGeometry x="201" y="120" width="78" height="40" as="geometry" />
        </mxCell>
        <mxCell id="rg9jomImTCPaBaOwgLlo-160" value="S3 Bucket" style="text;html=1;strokeColor=none;fillColor=none;align=center;verticalAlign=middle;whiteSpace=wrap;rounded=0;" vertex="1" parent="rg9jomImTCPaBaOwgLlo-154">
          <mxGeometry x="42" y="280" width="78" height="40" as="geometry" />
        </mxCell>
        <mxCell id="rg9jomImTCPaBaOwgLlo-161" value="User" style="text;html=1;strokeColor=none;fillColor=none;align=center;verticalAlign=middle;whiteSpace=wrap;rounded=0;" vertex="1" parent="1">
          <mxGeometry x="81" y="520" width="78" height="40" as="geometry" />
        </mxCell>
        <mxCell id="rg9jomImTCPaBaOwgLlo-162" value="" style="sketch=0;points=[[0,0,0],[0.25,0,0],[0.5,0,0],[0.75,0,0],[1,0,0],[0,1,0],[0.25,1,0],[0.5,1,0],[0.75,1,0],[1,1,0],[0,0.25,0],[0,0.5,0],[0,0.75,0],[1,0.25,0],[1,0.5,0],[1,0.75,0]];outlineConnect=0;fontColor=#232F3E;fillColor=#7AA116;strokeColor=#ffffff;dashed=0;verticalLabelPosition=bottom;verticalAlign=top;align=center;html=1;fontSize=12;fontStyle=0;aspect=fixed;shape=mxgraph.aws4.resourceIcon;resIcon=mxgraph.aws4.s3;" vertex="1" parent="1">
          <mxGeometry x="281" y="281" width="78" height="78" as="geometry" />
        </mxCell>
      </root>
    </mxGraphModel>
  </diagram>
</mxfile>
